# xmcd CD database file
#
# Track frame offsets:
#	150
#	28265
#	52962
#	79910
#	107865
#	131775
#	155127
#	186740
#	214372
#	238382
#	263750
#	290105
#
# Disc length: 4187 seconds
#
# Revision: 0
# Processed by: cddbd v1.5.2PL0 Copyright (c) Steve Scherf et al.
# Submitted via: CDex 1.70beta2
#
DISCID=c810590c
DTITLE=Gerhard, Siggi - Siggi Gerhard Swingtett - Live
DYEAR=1991
DGENRE=Jazz
TTITLE0=After You've Gone
TTITLE1=Bye Bye Blackbird
TTITLE2=Undecided
TTITLE3=Autumn Leaves
TTITLE4=Wholly Cats
TTITLE5=Take The A-Train
TTITLE6=Don't Get Around Much Anymore
TTITLE7=Sweet Georgia Brown
TTITLE8=Exactly Like You
TTITLE9=You Are The Sunshine Of My Life
TTITLE10=Pennies From Heaven
TTITLE11=Avalon
EXTD=YEAR: 1991
EXTT0=
EXTT1=
EXTT2=
EXTT3=
EXTT4=
EXTT5=
EXTT6=
EXTT7=
EXTT8=
EXTT9=
EXTT10=
EXTT11=
PLAYORDER=
